<svg xmlns="http://www.w3.org/2000/svg" x="0px" y="0px" width="32" height="32" viewBox="0 0 172 172" style=" fill:#000000;">
    <g fill="none" fill-rule="nonzero" stroke="none" stroke-width="1" stroke-linecap="butt" stroke-linejoin="miter" stroke-miterlimit="10" stroke-dasharray="" stroke-dashoffset="0" font-family="none" font-weight="none" font-size="none" text-anchor="none" style="mix-blend-mode: normal">
        <path d="M0,172v-172h172v172z" fill="none"></path>
        <g fill="#fc4a1a">
            <path d="M69.875,26.875c1.4835,0 2.6875,-1.204 2.6875,-2.6875c0,-1.4835 -1.204,-2.6875 -2.6875,-2.6875c-26.67075,0 -48.375,21.70425 -48.375,48.375c0,1.4835 1.204,2.6875 2.6875,2.6875c1.4835,0 2.6875,-1.204 2.6875,-2.6875c0,-23.70912 19.29088,-43 43,-43z"></path>
            <path d="M69.875,134.375c15.23275,0 29.90112,-5.46637 41.56488,-15.33488l46.01,46.01c1.04812,1.04812 2.42413,1.57487 3.80013,1.57487c1.376,0 2.752,-0.52675 3.80013,-1.57487c2.10162,-2.10162 2.10162,-5.49863 0,-7.60025l-46.04763,-46.04762c9.92763,-11.65838 15.3725,-26.20312 15.3725,-41.52725c0,-35.56637 -28.93362,-64.5 -64.5,-64.5c-35.56638,0 -64.5,28.93363 -64.5,64.5c0,35.56638 28.93363,64.5 64.5,64.5zM69.875,16.125c29.63775,0 53.75,24.11225 53.75,53.75c0,14.23838 -5.62763,27.70275 -15.8455,37.9045l-0.7525,0.76863c-0.4515,0.46225 -0.89763,0.9245 -1.38138,1.35988c-9.89537,8.84725 -22.5965,13.717 -35.77062,13.717c-29.63775,0 -53.75,-24.11225 -53.75,-53.75c0,-29.63775 24.11225,-53.75 53.75,-53.75z"></path>
        </g>
    </g>
</svg>